<mxfile host="Electron" agent="Mozilla/5.0 (Windows NT 10.0; Win64; x64) AppleWebKit/537.36 (KHTML, like Gecko) draw.io/24.7.17 Chrome/128.0.6613.36 Electron/32.0.1 Safari/537.36" version="24.7.17" pages="2">
  <diagram name="sd" id="lh_9ZSjdZzqyi73AcJHk">
    <mxGraphModel dx="318" dy="208" grid="1" gridSize="10" guides="1" tooltips="1" connect="1" arrows="1" fold="1" page="1" pageScale="1" pageWidth="1169" pageHeight="827" math="0" shadow="0">
      <root>
        <mxCell id="G-fJOfh1Eo4FLukb0Mk1-0" />
        <mxCell id="G-fJOfh1Eo4FLukb0Mk1-1" parent="G-fJOfh1Eo4FLukb0Mk1-0" />
        <mxCell id="j2wHkR6MYX8710po4bL9-6" style="edgeStyle=orthogonalEdgeStyle;rounded=0;orthogonalLoop=1;jettySize=auto;html=1;exitX=0.5;exitY=1;exitDx=0;exitDy=0;endArrow=none;endFill=0;" edge="1" parent="G-fJOfh1Eo4FLukb0Mk1-1" source="G-fJOfh1Eo4FLukb0Mk1-3">
          <mxGeometry relative="1" as="geometry">
            <mxPoint x="420" y="280" as="targetPoint" />
          </mxGeometry>
        </mxCell>
        <mxCell id="G-fJOfh1Eo4FLukb0Mk1-3" value="Temperatures" style="rounded=0;whiteSpace=wrap;html=1;fillColor=default;strokeColor=default;fontColor=default;" parent="G-fJOfh1Eo4FLukb0Mk1-1" vertex="1">
          <mxGeometry x="360" y="180" width="120" height="60" as="geometry" />
        </mxCell>
        <mxCell id="G-fJOfh1Eo4FLukb0Mk1-4" style="edgeStyle=orthogonalEdgeStyle;rounded=0;orthogonalLoop=1;jettySize=auto;html=1;exitX=0.75;exitY=1;exitDx=0;exitDy=0;startArrow=none;startFill=0;endArrow=block;endFill=1;strokeColor=default;labelBackgroundColor=default;fontColor=default;" parent="G-fJOfh1Eo4FLukb0Mk1-1" edge="1">
          <mxGeometry relative="1" as="geometry">
            <mxPoint x="210" y="410.82" as="targetPoint" />
            <mxPoint x="210" y="390.82000000000005" as="sourcePoint" />
          </mxGeometry>
        </mxCell>
        <mxCell id="sk0_wfUYIi8O1wOgkIli-2" style="edgeStyle=orthogonalEdgeStyle;rounded=0;orthogonalLoop=1;jettySize=auto;html=1;exitX=0.5;exitY=0;exitDx=0;exitDy=0;labelBackgroundColor=default;fontColor=default;endArrow=none;endFill=0;strokeColor=default;" parent="G-fJOfh1Eo4FLukb0Mk1-1" source="G-fJOfh1Eo4FLukb0Mk1-6" edge="1">
          <mxGeometry relative="1" as="geometry">
            <mxPoint x="180" y="280.82" as="targetPoint" />
          </mxGeometry>
        </mxCell>
        <mxCell id="G-fJOfh1Eo4FLukb0Mk1-6" value="Read data from&lt;div&gt;csv file&lt;/div&gt;" style="rounded=0;whiteSpace=wrap;html=1;strokeColor=default;labelBackgroundColor=default;fontColor=default;spacingLeft=4;spacingRight=4;" parent="G-fJOfh1Eo4FLukb0Mk1-1" vertex="1">
          <mxGeometry x="120" y="320" width="120" height="70.82" as="geometry" />
        </mxCell>
        <mxCell id="G-fJOfh1Eo4FLukb0Mk1-7" value="datesUS()&lt;div&gt;times()&lt;/div&gt;&lt;div&gt;tempFs()&lt;/div&gt;" style="text;html=1;strokeColor=none;fillColor=none;align=center;verticalAlign=top;whiteSpace=wrap;rounded=0;" parent="G-fJOfh1Eo4FLukb0Mk1-1" vertex="1">
          <mxGeometry x="180" y="411.64" width="60" height="59.18" as="geometry" />
        </mxCell>
        <mxCell id="sk0_wfUYIi8O1wOgkIli-1" style="edgeStyle=orthogonalEdgeStyle;rounded=0;orthogonalLoop=1;jettySize=auto;html=1;exitX=0.5;exitY=0;exitDx=0;exitDy=0;labelBackgroundColor=default;fontColor=default;endArrow=none;endFill=0;strokeColor=default;" parent="G-fJOfh1Eo4FLukb0Mk1-1" source="G-fJOfh1Eo4FLukb0Mk1-10" edge="1">
          <mxGeometry relative="1" as="geometry">
            <mxPoint x="660" y="280" as="targetPoint" />
          </mxGeometry>
        </mxCell>
        <mxCell id="NRt5Hg4WPn0tRWVujLKN-1" style="edgeStyle=orthogonalEdgeStyle;rounded=0;orthogonalLoop=1;jettySize=auto;html=1;exitX=0.25;exitY=1;exitDx=0;exitDy=0;entryX=0.5;entryY=0;entryDx=0;entryDy=0;endArrow=none;endFill=0;startArrow=block;startFill=1;" parent="G-fJOfh1Eo4FLukb0Mk1-1" source="G-fJOfh1Eo4FLukb0Mk1-10" edge="1">
          <mxGeometry relative="1" as="geometry">
            <mxPoint x="630" y="460" as="targetPoint" />
          </mxGeometry>
        </mxCell>
        <mxCell id="G-fJOfh1Eo4FLukb0Mk1-10" value="Write data to&lt;div&gt;csv file&lt;/div&gt;" style="rounded=0;whiteSpace=wrap;html=1;strokeColor=default;labelBackgroundColor=default;fontColor=default;spacingLeft=4;spacingRight=4;" parent="G-fJOfh1Eo4FLukb0Mk1-1" vertex="1">
          <mxGeometry x="600" y="319.18" width="120" height="70.82" as="geometry" />
        </mxCell>
        <mxCell id="G-fJOfh1Eo4FLukb0Mk1-11" value="tempFs()" style="text;html=1;strokeColor=none;fillColor=none;align=center;verticalAlign=top;whiteSpace=wrap;rounded=0;fontColor=default;" parent="G-fJOfh1Eo4FLukb0Mk1-1" vertex="1">
          <mxGeometry x="280" y="450" width="60" height="30" as="geometry" />
        </mxCell>
        <mxCell id="G-fJOfh1Eo4FLukb0Mk1-12" value="" style="endArrow=none;html=1;strokeColor=default;labelBackgroundColor=default;fontColor=default;" parent="G-fJOfh1Eo4FLukb0Mk1-1" edge="1">
          <mxGeometry width="50" height="50" relative="1" as="geometry">
            <mxPoint x="180" y="280" as="sourcePoint" />
            <mxPoint x="660" y="280" as="targetPoint" />
          </mxGeometry>
        </mxCell>
        <mxCell id="G-fJOfh1Eo4FLukb0Mk1-13" style="edgeStyle=orthogonalEdgeStyle;rounded=0;orthogonalLoop=1;jettySize=auto;html=1;exitX=0.75;exitY=1;exitDx=0;exitDy=0;endArrow=block;endFill=1;fontColor=default;" parent="G-fJOfh1Eo4FLukb0Mk1-1" edge="1">
          <mxGeometry relative="1" as="geometry">
            <mxPoint x="370" y="410" as="targetPoint" />
            <mxPoint x="370" y="390" as="sourcePoint" />
          </mxGeometry>
        </mxCell>
        <mxCell id="G-fJOfh1Eo4FLukb0Mk1-14" style="edgeStyle=orthogonalEdgeStyle;rounded=0;orthogonalLoop=1;jettySize=auto;html=1;exitX=0.25;exitY=1;exitDx=0;exitDy=0;endArrow=none;endFill=0;startArrow=block;startFill=1;fontColor=default;" parent="G-fJOfh1Eo4FLukb0Mk1-1" edge="1">
          <mxGeometry relative="1" as="geometry">
            <mxPoint x="310" y="450" as="targetPoint" />
            <mxPoint x="310" y="390" as="sourcePoint" />
          </mxGeometry>
        </mxCell>
        <mxCell id="j2wHkR6MYX8710po4bL9-7" style="edgeStyle=orthogonalEdgeStyle;rounded=0;orthogonalLoop=1;jettySize=auto;html=1;exitX=0.5;exitY=0;exitDx=0;exitDy=0;endArrow=none;endFill=0;" edge="1" parent="G-fJOfh1Eo4FLukb0Mk1-1" source="G-fJOfh1Eo4FLukb0Mk1-15">
          <mxGeometry relative="1" as="geometry">
            <mxPoint x="340" y="280" as="targetPoint" />
          </mxGeometry>
        </mxCell>
        <mxCell id="G-fJOfh1Eo4FLukb0Mk1-15" value="Convert temperatures from Fahrenheit to Celsius (1 dp)" style="rounded=0;whiteSpace=wrap;html=1;fontColor=default;spacingLeft=4;spacingRight=4;" parent="G-fJOfh1Eo4FLukb0Mk1-1" vertex="1">
          <mxGeometry x="280" y="319.18" width="120" height="70" as="geometry" />
        </mxCell>
        <mxCell id="G-fJOfh1Eo4FLukb0Mk1-16" value="tempCs()" style="text;html=1;strokeColor=none;fillColor=none;align=center;verticalAlign=top;whiteSpace=wrap;rounded=0;fontColor=default;" parent="G-fJOfh1Eo4FLukb0Mk1-1" vertex="1">
          <mxGeometry x="340" y="410" width="60" height="30" as="geometry" />
        </mxCell>
        <mxCell id="j2wHkR6MYX8710po4bL9-1" style="edgeStyle=orthogonalEdgeStyle;rounded=0;orthogonalLoop=1;jettySize=auto;html=1;exitX=0.25;exitY=1;exitDx=0;exitDy=0;endArrow=none;endFill=0;startArrow=block;startFill=1;" edge="1" parent="G-fJOfh1Eo4FLukb0Mk1-1" source="j2wHkR6MYX8710po4bL9-0">
          <mxGeometry relative="1" as="geometry">
            <mxPoint x="470" y="450" as="targetPoint" />
          </mxGeometry>
        </mxCell>
        <mxCell id="j2wHkR6MYX8710po4bL9-2" style="edgeStyle=orthogonalEdgeStyle;rounded=0;orthogonalLoop=1;jettySize=auto;html=1;exitX=0.75;exitY=1;exitDx=0;exitDy=0;endArrow=block;endFill=1;" edge="1" parent="G-fJOfh1Eo4FLukb0Mk1-1" source="j2wHkR6MYX8710po4bL9-0">
          <mxGeometry relative="1" as="geometry">
            <mxPoint x="530" y="410" as="targetPoint" />
          </mxGeometry>
        </mxCell>
        <mxCell id="j2wHkR6MYX8710po4bL9-8" style="edgeStyle=orthogonalEdgeStyle;rounded=0;orthogonalLoop=1;jettySize=auto;html=1;exitX=0.5;exitY=0;exitDx=0;exitDy=0;endArrow=none;endFill=0;" edge="1" parent="G-fJOfh1Eo4FLukb0Mk1-1" source="j2wHkR6MYX8710po4bL9-0">
          <mxGeometry relative="1" as="geometry">
            <mxPoint x="500" y="280" as="targetPoint" />
          </mxGeometry>
        </mxCell>
        <mxCell id="j2wHkR6MYX8710po4bL9-0" value="Convert dates from US to ISO format" style="rounded=0;whiteSpace=wrap;html=1;fontColor=default;spacingLeft=4;spacingRight=4;" vertex="1" parent="G-fJOfh1Eo4FLukb0Mk1-1">
          <mxGeometry x="440" y="320" width="120" height="70" as="geometry" />
        </mxCell>
        <mxCell id="j2wHkR6MYX8710po4bL9-3" value="datesUS()" style="text;html=1;strokeColor=none;fillColor=none;align=center;verticalAlign=top;whiteSpace=wrap;rounded=0;fontColor=default;" vertex="1" parent="G-fJOfh1Eo4FLukb0Mk1-1">
          <mxGeometry x="440" y="450" width="60" height="30" as="geometry" />
        </mxCell>
        <mxCell id="j2wHkR6MYX8710po4bL9-5" value="datesISO()" style="text;html=1;strokeColor=none;fillColor=none;align=center;verticalAlign=top;whiteSpace=wrap;rounded=0;fontColor=default;" vertex="1" parent="G-fJOfh1Eo4FLukb0Mk1-1">
          <mxGeometry x="500" y="410" width="60" height="30" as="geometry" />
        </mxCell>
        <mxCell id="j2wHkR6MYX8710po4bL9-10" value="&lt;span style=&quot;background-color: rgb(255, 255, 255);&quot;&gt;datesISO()&lt;/span&gt;&lt;div&gt;times()&lt;/div&gt;&lt;div&gt;tempCs()&lt;/div&gt;" style="text;html=1;align=center;verticalAlign=top;whiteSpace=wrap;rounded=0;" vertex="1" parent="G-fJOfh1Eo4FLukb0Mk1-1">
          <mxGeometry x="600" y="460" width="60" height="60" as="geometry" />
        </mxCell>
      </root>
    </mxGraphModel>
  </diagram>
  <diagram name="sd1" id="sMDaKSpsDboRaFfeyftR">
    <mxGraphModel dx="794" dy="519" grid="1" gridSize="10" guides="1" tooltips="1" connect="1" arrows="1" fold="1" page="1" pageScale="1" pageWidth="1169" pageHeight="827" math="0" shadow="0">
      <root>
        <mxCell id="DJ6xhzKPnjsRem51A2kO-0" />
        <mxCell id="DJ6xhzKPnjsRem51A2kO-1" parent="DJ6xhzKPnjsRem51A2kO-0" />
        <mxCell id="DJ6xhzKPnjsRem51A2kO-2" style="edgeStyle=orthogonalEdgeStyle;rounded=0;orthogonalLoop=1;jettySize=auto;html=1;exitX=0.5;exitY=1;exitDx=0;exitDy=0;entryX=0.5;entryY=0;entryDx=0;entryDy=0;labelBackgroundColor=default;fontColor=default;strokeColor=default;endArrow=none;endFill=0;" edge="1" parent="DJ6xhzKPnjsRem51A2kO-1" source="DJ6xhzKPnjsRem51A2kO-3" target="DJ6xhzKPnjsRem51A2kO-15">
          <mxGeometry relative="1" as="geometry" />
        </mxCell>
        <mxCell id="DJ6xhzKPnjsRem51A2kO-3" value="Temperatures" style="rounded=0;whiteSpace=wrap;html=1;fillColor=default;strokeColor=default;fontColor=default;" vertex="1" parent="DJ6xhzKPnjsRem51A2kO-1">
          <mxGeometry x="400" y="180" width="120" height="60" as="geometry" />
        </mxCell>
        <mxCell id="DJ6xhzKPnjsRem51A2kO-4" style="edgeStyle=orthogonalEdgeStyle;rounded=0;orthogonalLoop=1;jettySize=auto;html=1;exitX=0.75;exitY=1;exitDx=0;exitDy=0;startArrow=none;startFill=0;endArrow=block;endFill=1;strokeColor=default;labelBackgroundColor=default;fontColor=default;" edge="1" parent="DJ6xhzKPnjsRem51A2kO-1">
          <mxGeometry relative="1" as="geometry">
            <mxPoint x="290" y="410" as="targetPoint" />
            <mxPoint x="290" y="390.00000000000006" as="sourcePoint" />
          </mxGeometry>
        </mxCell>
        <mxCell id="DJ6xhzKPnjsRem51A2kO-5" style="edgeStyle=orthogonalEdgeStyle;rounded=0;orthogonalLoop=1;jettySize=auto;html=1;exitX=0.5;exitY=0;exitDx=0;exitDy=0;labelBackgroundColor=default;fontColor=default;endArrow=none;endFill=0;strokeColor=default;" edge="1" parent="DJ6xhzKPnjsRem51A2kO-1" source="DJ6xhzKPnjsRem51A2kO-6">
          <mxGeometry relative="1" as="geometry">
            <mxPoint x="260" y="280" as="targetPoint" />
          </mxGeometry>
        </mxCell>
        <mxCell id="DJ6xhzKPnjsRem51A2kO-6" value="Read data from&lt;div&gt;csv file&lt;/div&gt;" style="rounded=0;whiteSpace=wrap;html=1;strokeColor=default;labelBackgroundColor=default;fontColor=default;spacingLeft=4;spacingRight=4;" vertex="1" parent="DJ6xhzKPnjsRem51A2kO-1">
          <mxGeometry x="200" y="319.18" width="120" height="70.82" as="geometry" />
        </mxCell>
        <mxCell id="DJ6xhzKPnjsRem51A2kO-7" value="dates(), times(), tempFs()" style="text;html=1;strokeColor=none;fillColor=none;align=center;verticalAlign=middle;whiteSpace=wrap;rounded=0;" vertex="1" parent="DJ6xhzKPnjsRem51A2kO-1">
          <mxGeometry x="220" y="414" width="140" height="20" as="geometry" />
        </mxCell>
        <mxCell id="DJ6xhzKPnjsRem51A2kO-8" style="edgeStyle=orthogonalEdgeStyle;rounded=0;orthogonalLoop=1;jettySize=auto;html=1;exitX=0.5;exitY=0;exitDx=0;exitDy=0;labelBackgroundColor=default;fontColor=default;endArrow=none;endFill=0;strokeColor=default;" edge="1" parent="DJ6xhzKPnjsRem51A2kO-1" source="DJ6xhzKPnjsRem51A2kO-10">
          <mxGeometry relative="1" as="geometry">
            <mxPoint x="660" y="280" as="targetPoint" />
          </mxGeometry>
        </mxCell>
        <mxCell id="DJ6xhzKPnjsRem51A2kO-9" style="edgeStyle=orthogonalEdgeStyle;rounded=0;orthogonalLoop=1;jettySize=auto;html=1;exitX=0.25;exitY=1;exitDx=0;exitDy=0;entryX=0.5;entryY=0;entryDx=0;entryDy=0;endArrow=none;endFill=0;startArrow=block;startFill=1;" edge="1" parent="DJ6xhzKPnjsRem51A2kO-1" source="DJ6xhzKPnjsRem51A2kO-10" target="DJ6xhzKPnjsRem51A2kO-17">
          <mxGeometry relative="1" as="geometry" />
        </mxCell>
        <mxCell id="DJ6xhzKPnjsRem51A2kO-10" value="Write data to&lt;div&gt;txt file&lt;/div&gt;" style="rounded=0;whiteSpace=wrap;html=1;strokeColor=default;labelBackgroundColor=default;fontColor=default;spacingLeft=4;spacingRight=4;" vertex="1" parent="DJ6xhzKPnjsRem51A2kO-1">
          <mxGeometry x="600" y="319.18" width="120" height="70.82" as="geometry" />
        </mxCell>
        <mxCell id="DJ6xhzKPnjsRem51A2kO-11" value="tempFs()" style="text;html=1;strokeColor=none;fillColor=none;align=center;verticalAlign=middle;whiteSpace=wrap;rounded=0;fontColor=default;" vertex="1" parent="DJ6xhzKPnjsRem51A2kO-1">
          <mxGeometry x="400" y="450.82" width="60" height="20" as="geometry" />
        </mxCell>
        <mxCell id="DJ6xhzKPnjsRem51A2kO-12" value="" style="endArrow=none;html=1;strokeColor=default;labelBackgroundColor=default;fontColor=default;" edge="1" parent="DJ6xhzKPnjsRem51A2kO-1">
          <mxGeometry width="50" height="50" relative="1" as="geometry">
            <mxPoint x="260" y="280" as="sourcePoint" />
            <mxPoint x="660" y="280" as="targetPoint" />
          </mxGeometry>
        </mxCell>
        <mxCell id="DJ6xhzKPnjsRem51A2kO-13" style="edgeStyle=orthogonalEdgeStyle;rounded=0;orthogonalLoop=1;jettySize=auto;html=1;exitX=0.75;exitY=1;exitDx=0;exitDy=0;endArrow=block;endFill=1;fontColor=default;" edge="1" parent="DJ6xhzKPnjsRem51A2kO-1">
          <mxGeometry relative="1" as="geometry">
            <mxPoint x="490" y="410.82" as="targetPoint" />
            <mxPoint x="490" y="390.82" as="sourcePoint" />
          </mxGeometry>
        </mxCell>
        <mxCell id="DJ6xhzKPnjsRem51A2kO-14" style="edgeStyle=orthogonalEdgeStyle;rounded=0;orthogonalLoop=1;jettySize=auto;html=1;exitX=0.25;exitY=1;exitDx=0;exitDy=0;endArrow=none;endFill=0;startArrow=block;startFill=1;fontColor=default;" edge="1" parent="DJ6xhzKPnjsRem51A2kO-1">
          <mxGeometry relative="1" as="geometry">
            <mxPoint x="430" y="450.82" as="targetPoint" />
            <mxPoint x="430" y="390.82" as="sourcePoint" />
          </mxGeometry>
        </mxCell>
        <mxCell id="DJ6xhzKPnjsRem51A2kO-15" value="Convert temperatures from Fahrenheit to Celsius (1 dp)" style="rounded=0;whiteSpace=wrap;html=1;fontColor=default;spacingLeft=4;spacingRight=4;" vertex="1" parent="DJ6xhzKPnjsRem51A2kO-1">
          <mxGeometry x="400" y="320" width="120" height="70" as="geometry" />
        </mxCell>
        <mxCell id="DJ6xhzKPnjsRem51A2kO-16" value="tempCs()" style="text;html=1;strokeColor=none;fillColor=none;align=center;verticalAlign=middle;whiteSpace=wrap;rounded=0;fontColor=default;" vertex="1" parent="DJ6xhzKPnjsRem51A2kO-1">
          <mxGeometry x="465" y="410.82" width="50" height="20" as="geometry" />
        </mxCell>
        <mxCell id="DJ6xhzKPnjsRem51A2kO-17" value="dates(), times(), tempCs()" style="text;html=1;strokeColor=none;fillColor=none;align=center;verticalAlign=middle;whiteSpace=wrap;rounded=0;fontColor=default;labelBackgroundColor=default;" vertex="1" parent="DJ6xhzKPnjsRem51A2kO-1">
          <mxGeometry x="560" y="450.82" width="140" height="20" as="geometry" />
        </mxCell>
      </root>
    </mxGraphModel>
  </diagram>
</mxfile>
